<?xml version="1.0" encoding="iso-8859-1"?>
<!-- Generator: Adobe Illustrator 18.0.0, SVG Export Plug-In . SVG Version: 6.00 Build 0)  -->
<!DOCTYPE svg PUBLIC "-//W3C//DTD SVG 1.1//EN" "http://www.w3.org/Graphics/SVG/1.1/DTD/svg11.dtd">
<svg version="1.1" id="Layer_1" xmlns="http://www.w3.org/2000/svg" xmlns:xlink="http://www.w3.org/1999/xlink" x="0px" y="0px"
     viewBox="-12 -12 48 48" style="enable-background:new -12 -12 48 48;" xml:space="preserve">
<path fill="#cbcbcb" d="M23.058,5.038H0.942C0.42,5.038,0,5.46,0,5.979v12.041c0,0.522,0.423,0.942,0.942,0.942h7.857
    c0.261,0,0.493-0.174,0.565-0.425c0.881-3.028,1.062-4.754,2.724-4.754c1.659,0,1.905,1.973,2.685,4.766
    c0.068,0.244,0.29,0.41,0.543,0.41h7.743c0.522,0,0.942-0.423,0.942-0.942V5.982C24,5.46,23.58,5.038,23.058,5.038z M6.628,14.505
    c-1.384,0-2.504-1.12-2.504-2.504s1.12-2.504,2.504-2.504s2.501,1.12,2.501,2.504S8.009,14.505,6.628,14.505z M17.372,14.505
    c-1.384,0-2.504-1.12-2.504-2.504s1.12-2.504,2.504-2.504c1.383,0,2.504,1.12,2.504,2.504S18.756,14.505,17.372,14.505z"/>
</svg>
